<?xml version="1.0" encoding="UTF-8"?> <svg xmlns="http://www.w3.org/2000/svg" width="451" height="163" viewBox="0 0 451 163" fill="none"><g clip-path="url(#clip0_2017_13)"><path d="M34.0136 43.8794C12.5844 43.8794 0.307434 58.0246 0.307434 76.4214V118.464C0.307434 136.856 12.5844 151.006 34.2226 151.006C56.0673 151.006 67.5108 136.856 67.5108 118.464V112.804C67.5108 111.794 66.6799 110.986 65.8465 110.986H52.1118C49.6987 110.986 47.7434 112.886 47.7434 115.23V118.466C47.7434 126.146 43.3749 133.02 34.2201 133.02C25.0653 133.02 20.0699 126.146 20.0699 118.466V76.4214C20.0699 68.6423 24.6125 62.3906 31.9364 61.398C40.3847 60.2536 47.7409 67.1869 47.7409 75.4735V79.2499C47.7409 81.5933 49.6962 83.494 52.1093 83.494H65.8441C66.6774 83.494 67.5083 82.887 67.5083 81.8769V77.2274C67.5083 58.0246 53.5671 43.877 34.0111 43.877L34.0136 43.8794Z" fill="#1BA6DC"></path><path d="M190.882 43.8781C182.351 43.8781 175.903 47.7167 171.117 52.7718C170.701 53.3788 169.662 52.9733 169.662 52.1648V13.1523C169.662 10.8088 167.706 8.9082 165.293 8.9082H154.051C151.64 8.9082 149.685 10.8063 149.685 13.1498V66.6508C149.685 68.0215 149.061 69.3425 147.976 70.1809C146.449 71.365 144.934 72.4571 143.426 73.4671C143.013 73.7433 142.476 73.4522 142.443 72.9572C141.398 57.2223 130.278 43.8781 110.1 43.8781C89.711 43.8781 75.3544 58.0258 75.3544 76.4201C75.3544 78.7635 77.3097 80.6641 79.7203 80.6641H90.7534C93.1665 80.6641 95.1218 78.7635 95.1218 76.4201V74.803C95.1218 67.121 100.53 60.8544 109.063 60.8544C117.596 60.8544 122.795 67.121 122.795 74.803V80.8656C122.795 81.6716 122.171 82.4826 121.337 82.8857L94.4999 91.1723C80.5587 95.6203 70.9884 106.738 70.9884 122.704C71.1974 139.887 84.5142 151.002 101.157 151.002C110.105 151.002 117.8 148.375 123.211 141.501C123.626 140.894 124.46 141.098 124.669 141.705L126.333 147.161C126.748 148.171 127.582 148.778 128.622 148.778H138.194C140.607 148.778 142.563 146.877 142.563 144.534V93.9336C142.563 92.2843 143.483 90.7892 144.926 89.9906C146.182 89.2965 147.441 88.5602 148.707 87.779C149.135 87.5153 149.69 87.8114 149.69 88.3164V144.536C149.69 146.88 151.645 148.78 154.059 148.78H166.129C166.962 148.78 167.793 148.173 168.002 147.163L168.833 141.708C169.042 140.899 169.875 140.695 170.291 141.302C175.284 146.76 181.943 151.005 190.887 151.005C208.572 151.005 220.225 138.068 220.225 121.697V73.1835C220.225 56.8143 208.572 43.8781 190.887 43.8781H190.882ZM122.793 117.652C122.793 125.334 114.884 134.227 104.277 134.227H103.859C94.9129 134.227 90.7509 127.558 90.7509 120.077C90.7509 113.204 94.9129 107.748 102.194 105.322C106.983 103.773 112.991 102.223 118.255 100.854C120.554 100.257 122.793 101.994 122.793 104.367V117.652ZM200.037 120.483C200.037 127.961 193.38 134.026 185.68 134.026C177.98 134.026 169.662 128.165 169.662 116.44V78.6441C169.662 66.7179 177.985 61.0584 185.68 61.0584C193.375 61.0584 200.037 67.121 200.037 74.3975V120.483Z" fill="#1BA6DC"></path><path d="M343.138 43.6758C333.359 43.6758 326.286 48.9323 321.293 55.1964C320.875 55.8034 319.836 55.4004 319.627 54.7934L319.002 47.7208C318.796 46.9123 317.962 46.3053 317.131 46.3053H306.101C303.805 46.3053 301.941 48.1139 301.941 50.3454V65.3986C301.941 66.7345 301.344 68.0256 300.307 68.869C298.73 70.1526 297.165 71.3343 295.615 72.4264C295.21 72.71 294.67 72.4339 294.622 71.9413C293.172 56.6542 282.097 43.8823 262.354 43.8823C241.965 43.8823 227.608 58.03 227.608 76.4242C227.608 78.7676 229.563 80.6683 231.977 80.6683H243.007C245.42 80.6683 247.376 78.7676 247.376 76.4242V74.8072C247.376 67.1251 252.786 60.8585 261.317 60.8585C269.847 60.8585 275.049 67.1251 275.049 74.8072V80.8698C275.049 81.6758 274.425 82.4868 273.594 82.8898L246.754 91.1764C232.812 95.6244 223.245 106.742 223.245 122.708C223.451 139.891 236.768 151.006 253.413 151.006C262.359 151.006 270.056 148.379 275.467 141.506C275.882 140.899 276.713 141.103 276.922 141.71L278.587 147.165C279.002 148.175 279.835 148.782 280.875 148.782H290.448C292.861 148.782 294.816 146.882 294.816 144.538V93.0571C294.816 91.4351 295.705 89.9624 297.108 89.1539C298.384 88.4175 299.665 87.6388 300.954 86.8129C301.382 86.5368 301.946 86.8328 301.946 87.3428V144.541C301.946 146.884 303.902 148.785 306.315 148.785H317.554C319.965 148.785 321.92 146.887 321.92 144.543V78.4417C321.92 66.7196 330.244 60.856 337.941 60.856C345.638 60.856 352.298 66.7171 352.298 77.2277V144.538C352.298 146.882 354.253 148.782 356.666 148.782H370.816C371.65 148.782 372.481 147.974 372.481 146.964V75.0062C372.481 58.836 360.828 43.6783 343.146 43.6783L343.138 43.6758ZM275.047 117.653C275.047 125.335 267.141 134.229 256.53 134.229H256.115C247.167 134.229 243.007 127.559 243.007 120.079C243.007 113.205 247.167 107.75 254.451 105.324C259.237 103.774 265.245 102.224 270.509 100.856C272.808 100.259 275.047 101.996 275.047 104.369V117.653Z" fill="#1BA6DC"></path><path d="M415.365 43.8789C394.976 43.8789 380.619 58.0266 380.619 76.4208C380.619 78.7643 382.574 80.6649 384.985 80.6649H396.018C398.431 80.6649 400.386 78.7643 400.386 76.4208V74.8038C400.386 67.1217 405.795 60.8551 414.328 60.8551C422.86 60.8551 428.06 67.1217 428.06 74.8038V80.8664C428.06 81.6724 427.435 82.4834 426.602 82.8864L399.764 91.173C385.823 95.6211 376.253 106.739 376.253 122.705C376.462 139.888 389.779 151.003 406.422 151.003C415.37 151.003 423.064 148.376 428.475 141.502C428.891 140.895 429.724 141.099 429.933 141.706L431.597 147.162C432.013 148.172 432.846 148.779 433.886 148.779H443.459C445.872 148.779 447.827 146.878 447.827 144.535V75.4083C447.827 58.6311 436.59 43.8789 415.37 43.8789H415.365ZM428.057 117.652C428.057 125.334 420.149 134.228 409.541 134.228H409.123C400.177 134.228 396.015 127.558 396.015 120.078C396.015 113.204 400.177 107.749 407.459 105.323C412.248 103.773 418.256 102.224 423.52 100.855C425.818 100.258 428.057 101.995 428.057 104.368V117.652Z" fill="#1BA6DC"></path></g><defs><clipPath id="clip0_2017_13"><rect width="450.626" height="162.227" fill="white" transform="translate(0.0341797 0.132812)"></rect></clipPath></defs></svg> 