<?xml version="1.0" encoding="UTF-8"?>
<svg width="300" height="59.636" clip-rule="evenodd" fill-rule="evenodd" stroke-linejoin="round" stroke-miterlimit="1.4142" version="1.1" viewBox="0 0 300 59.636" xml:space="preserve" xmlns="http://www.w3.org/2000/svg" xmlns:cc="http://creativecommons.org/ns#" xmlns:dc="http://purl.org/dc/elements/1.1/" xmlns:rdf="http://www.w3.org/1999/02/22-rdf-syntax-ns#"><metadata><rdf:RDF><cc:Work rdf:about=""><dc:format>image/svg+xml</dc:format><dc:type rdf:resource="http://purl.org/dc/dcmitype/StillImage"/><dc:title/></cc:Work></rdf:RDF></metadata><g transform="matrix(1.7756 0 0 1.7756 -7.1948 -25.906)" fill="#1e407c" fill-rule="nonzero"><path d="m145.58 26.108c-1.526 0-2.022 1.106-2.137 2.497l3.87-0.591c0-1.028-0.552-1.906-1.733-1.906zm3.854 6.694c0.041-0.03 0.102-0.035 0.146-5e-3 0.025 0.018 0.04 0.048 0.046 0.093 0.014 0.104 0.014 0.207 0.014 0.31 0 1.774-1.71 2.136-3.108 2.136-3.298 0-5.777-2.174-5.777-5.568 0-3.107 1.945-5.28 5.072-5.28 2.478 0 4.194 1.544 4.194 4.022 0 0.268-0.018 0.515-0.057 0.782l-6.481 0.895c0.228 1.908 1.518 3.204 3.678 3.204 0.747 0 1.646-0.126 2.273-0.589z"/><path d="m75.758 26.108c-1.507 0-2.004 1.105-2.117 2.497l3.87-0.592c0-1.028-0.553-1.905-1.753-1.905zm3.855 6.694c0.045-0.03 0.116-0.036 0.165-6e-3 0.025 0.019 0.039 0.047 0.044 0.093 0.015 0.104 0.015 0.207 0.015 0.31 0 1.773-1.716 2.137-3.107 2.137-3.317 0-5.777-2.175-5.777-5.568 0-3.108 1.926-5.28 5.053-5.28 2.478 0 4.212 1.543 4.212 4.022 0 0.267-0.019 0.515-0.056 0.781l-6.482 0.896c0.228 1.907 1.505 3.203 3.678 3.203 0.741 0 1.628-0.125 2.255-0.588z"/><path d="m140.93 33.143c0.022 0.088 0.033 0.264 0.033 0.379 0 1.354-1.449 1.812-2.554 1.812-2.155 0-3.507-1.278-3.507-3.489v-5.166h-1.179v-1.888h1.179v-2.021h2.84v2.021h2.8v1.888h-2.782v5.071c0 1.068 0.629 1.697 1.735 1.697 0.449 0 0.935-0.12 1.259-0.373 0.04-0.031 0.086-0.037 0.125-0.016 0.031 0.018 0.047 0.052 0.051 0.085z"/><path d="m95.893 33.144c0.02 0.088 0.031 0.263 0.031 0.379 0 1.354-1.468 1.813-2.555 1.813-2.174 0-3.508-1.279-3.508-3.49v-5.166h-1.197v-1.888h1.197v-2.02h2.842v2.02h2.801v1.888h-2.784v5.07c0 1.068 0.63 1.697 1.717 1.697 0.45 0 0.951-0.119 1.278-0.372 0.039-0.031 0.086-0.037 0.124-0.016 0.033 0.017 0.048 0.052 0.054 0.085z"/><path d="m150.29 26.158c0.134-1.001 0.997-1.518 1.938-1.518 1.125 0 1.914 0.687 1.914 1.869v0.381h0.059c0.85-1.22 1.67-2.402 3.208-2.402 0.155 0 0.33 0.018 0.501 0.056l-0.153 2.747c-0.29-0.097-0.585-0.135-0.895-0.135-1.01 0-1.811 0.839-2.561 1.584v6.291h-2.834v-7.97c0-0.419-0.137-0.896-0.648-0.896-0.136 0-0.27 0.031-0.395 0.09-0.032 0.017-0.072 0.015-0.101-0.011-0.027-0.022-0.037-0.052-0.033-0.086z"/><path d="m168.83 33.545c0.029-0.018 0.07-0.02 0.099 0.024 0.017 0.016 0.03 0.036 0.025 0.084-0.091 0.843-0.776 1.529-1.923 1.529-1.334 0-2.058-0.856-2.058-2.287v-4.766c0-0.744-0.459-1.106-1.012-1.106-1.03 0-1.924 1.011-2.516 1.62v6.388h-2.858v-10.239h2.801v1.946h0.057c1.143-1.24 2.382-2.25 4.024-2.25 0.551 0 1.151 0.19 1.581 0.554 0.705 0.589 0.782 1.486 0.782 2.362v5.339c0 0.496 0.152 0.915 0.61 0.915 0.156 0 0.281-0.032 0.388-0.113z"/><path d="m126.07 32.896c0.681 0.405 1.526 0.609 2.388 0.609 0.944 0 1.697-0.323 1.697-1.125 0-0.686-0.674-1.011-1.659-1.487-1.336-0.687-2.46-1.392-2.46-3.126 0-1.564 1.316-3.241 4.327-3.241 0.821 0 1.563 0.076 2.245 0.19l-0.336 1.945c-0.535-0.172-1.241-0.286-1.889-0.286-1.041 0-1.601 0.42-1.601 1.01 0 0.629 0.76 1.011 1.715 1.488 1.277 0.628 2.517 1.353 2.517 3.107 0 1.391-1.067 3.356-4.252 3.356-1.829 0-2.896-0.687-2.896-2.041 0-0.103 0-0.207 0.014-0.312 5e-3 -0.039 0.026-0.08 0.066-0.097 0.04-0.02 0.088-0.01 0.124 0.01z"/><path d="m81.026 32.896c0.664 0.405 1.506 0.608 2.388 0.608 0.935 0 1.677-0.323 1.677-1.124 0-0.687-0.668-1.011-1.639-1.487-1.353-0.687-2.46-1.392-2.46-3.127 0-1.563 1.297-3.24 4.31-3.24 0.838 0 1.582 0.075 2.249 0.19l-0.325 1.944c-0.533-0.171-1.24-0.286-1.906-0.286-1.029 0-1.582 0.42-1.582 1.011 0 0.628 0.744 1.011 1.696 1.488 1.297 0.628 2.516 1.352 2.516 3.106 0 1.392-1.048 3.357-4.231 3.357-1.849 0-2.897-0.687-2.897-2.041 0-0.103 0-0.209 0.013-0.313 6e-3 -0.038 0.028-0.079 0.066-0.097 0.041-0.019 0.091-9e-3 0.125 0.011z"/><path d="m120.82 26.108c-1.525 0-2.02 1.106-2.135 2.497l3.869-0.591c0-1.028-0.552-1.906-1.734-1.906zm3.855 6.694c0.041-0.03 0.102-0.035 0.146-5e-3 0.024 0.018 0.04 0.048 0.045 0.093 0.015 0.104 0.015 0.207 0.015 0.31 0 1.774-1.707 2.136-3.108 2.136-3.297 0-5.777-2.174-5.777-5.568 0-3.107 1.945-5.28 5.072-5.28 2.477 0 4.193 1.544 4.193 4.022 0 0.268-0.019 0.515-0.056 0.782l-6.482 0.895c0.229 1.908 1.524 3.204 3.678 3.204 0.75 0 1.647-0.126 2.274-0.589z"/><path d="m62.367 23.194v4.098c1.462-0.122 2.184-0.41 2.784-0.804 0.618-0.404 0.976-0.974 1.01-1.604 0.016-0.357-0.092-0.707-0.316-0.973-0.264-0.318-0.684-0.547-1.246-0.675-0.323-0.074-0.741-0.112-1.173-0.112-0.343 0-0.707 0.025-1.059 0.07zm0 10.024c0.31 0.061 0.761 0.101 1.154 0.101 1.082 0 1.616-0.222 2.032-0.462 0.402-0.231 0.729-0.588 0.944-1.029 0.215-0.442 0.301-0.94 0.254-1.46-0.088-0.929-0.697-1.601-1.713-1.892-0.327-0.092-0.72-0.143-1.153-0.143-0.489 0-1.012 0.069-1.518 0.198zm0.877 2.004c-1.28 0-2.647-0.124-3.912-0.355l-0.077-0.014v-13.077l0.078-0.011c1.783-0.29 3.216-0.432 4.402-0.432h0.01c1.631 1e-3 2.639 0.18 3.635 0.637 0.573 0.268 1.01 0.64 1.302 1.106 0.245 0.391 0.377 0.84 0.383 1.315 4e-3 0.282-0.05 0.848-0.459 1.469-0.351 0.535-0.873 0.977-1.575 1.315 0.467 0.112 0.918 0.303 1.285 0.505 0.676 0.372 1.169 0.864 1.464 1.464 0.278 0.569 0.378 1.232 0.299 1.993-0.149 1.39-1.077 2.641-2.482 3.314-0.86 0.402-1.832 0.639-2.993 0.722-0.434 0.033-0.897 0.049-1.36 0.049z"/><path d="m111.36 23.391c0.222-0.105 0.399-0.092 0.525-0.074 0.695 0.101 1.059 1.342 0.984 3.409-0.035 0.996-0.241 2.506-0.714 3.83-0.23 0.638-0.493 1.139-0.784 1.492-0.315 0.388-0.669 0.584-1.034 0.588h-0.048c-0.084 0-0.183-3e-3 -0.268-0.021l-1.623-11.031h-3.208l1.207 7.306c-0.077 0.507-0.264 1.464-0.653 2.307-0.381 0.81-0.849 1.268-1.41 1.36-0.071 0.011-0.217 0.024-0.353 0.024-0.06 0-0.113-2e-3 -0.158-7e-3l-1.614-10.99h-3.21l2.222 13.466 0.058 0.015c0.418 0.101 0.854 0.154 1.279 0.154 0.355 0 0.699-0.037 1.017-0.107 0.8-0.177 1.569-0.65 2.19-1.365 0.486-0.581 0.87-1.275 1.102-2.009l0.547 3.314 0.059 0.014c0.594 0.129 0.987 0.155 1.435 0.155 0.125 0 0.255-3e-3 0.376-5e-3 0.812-0.013 1.591-0.237 2.28-0.663 0.643-0.4 1.212-0.967 1.687-1.708 0.681-1.013 1.201-2.272 1.552-3.762 0.308-1.288 0.47-2.698 0.47-4.04 0-1.127-0.175-2.009-0.519-2.641-0.39-0.715-0.995-1.079-1.773-1.079-0.417 0-0.844 0.177-1.168 0.484-0.247 0.235-0.59 0.685-0.617 1.474-2e-3 0.036 0.012 0.077 0.044 0.099 0.034 0.024 0.083 0.028 0.12 0.011z"/><path d="m78.33 47.978v-3.391h-3.213v3.391h-1.684v-7.389h1.684v2.847h3.213v-2.847h1.695v7.389z"/><path d="m84.067 43.226c-0.953 0-1.152 0.995-1.152 1.737 0 0.754 0.157 2.198 1.204 2.198 0.932 0 1.141-1.224 1.141-2.009 0-0.764-0.189-1.926-1.193-1.926zm-0.053 4.95c-1.8 0-2.72-1.36-2.72-3.055 0-1.78 1.13-2.91 2.898-2.91 1.695 0 2.68 1.047 2.68 2.752 0 1.769-1.015 3.213-2.858 3.213z"/><path d="m137.73 43.226c-0.953 0-1.152 0.995-1.152 1.737 0 0.754 0.157 2.198 1.204 2.198 0.932 0 1.141-1.224 1.141-2.009 0-0.764-0.188-1.926-1.193-1.926zm-0.053 4.95c-1.8 0-2.721-1.36-2.721-3.055 0-1.78 1.131-2.91 2.899-2.91 1.695 0 2.679 1.047 2.679 2.752 0 1.769-1.015 3.213-2.857 3.213z"/><path d="m94.409 43.111c-0.828 0-1.099 0.606-1.161 1.36l2.113-0.323c0-0.555-0.303-1.037-0.952-1.037zm2.106 3.654c0.024-0.017 0.057-0.02 0.081-2e-3 0.014 0.01 0.022 0.026 0.024 0.049 8e-3 0.058 8e-3 0.114 8e-3 0.172 0 0.962-0.932 1.161-1.696 1.161-1.799 0-3.15-1.183-3.15-3.035 0-1.696 1.058-2.888 2.763-2.888 1.351 0 2.292 0.848 2.292 2.197 0 0.147-0.01 0.283-0.031 0.429l-3.538 0.493c0.126 1.036 0.827 1.747 2.01 1.747 0.406 0 0.893-0.069 1.237-0.323z"/><path d="m127.21 43.111c-0.828 0-1.1 0.606-1.162 1.36l2.113-0.323c0-0.556-0.303-1.037-0.951-1.037zm2.106 3.654c0.022-0.017 0.056-0.02 0.079-3e-3 0.014 0.011 0.022 0.026 0.025 0.05 7e-3 0.058 7e-3 0.114 7e-3 0.171 0 0.963-0.932 1.162-1.695 1.162-1.799 0-3.15-1.183-3.15-3.035 0-1.696 1.057-2.888 2.764-2.888 1.349 0 2.291 0.848 2.291 2.197 0 0.147-0.01 0.283-0.031 0.429l-3.537 0.493c0.125 1.036 0.826 1.747 2.008 1.747 0.408 0 0.894-0.069 1.239-0.323z"/><path d="m91.491 46.953c0.011 0.049 0.018 0.145 0.018 0.209 0 0.732-0.796 0.983-1.394 0.983-1.181 0-1.913-0.7-1.913-1.904v-2.816h-0.647v-1.037h0.647v-1.099h1.549v1.099h1.527v1.037h-1.517v2.763c0 0.585 0.345 0.931 0.942 0.931 0.247 0 0.512-0.066 0.69-0.205 0.022-0.016 0.048-0.019 0.069-8e-3 0.018 9e-3 0.026 0.028 0.029 0.047z"/><path d="m149.89 46.953c0.01 0.049 0.018 0.145 0.018 0.209 0 0.732-0.796 0.983-1.394 0.983-1.18 0-1.914-0.7-1.914-1.904v-2.816h-0.646v-1.037h0.646v-1.099h1.549v1.099h1.528v1.037h-1.518v2.763c0 0.585 0.345 0.931 0.943 0.931 0.247 0 0.512-0.066 0.691-0.205 0.021-0.016 0.047-0.019 0.068-8e-3 0.018 9e-3 0.026 0.028 0.029 0.047z"/><path d="m141.23 43.138c0.073-0.551 0.54-0.833 1.054-0.833 0.618 0 1.046 0.377 1.046 1.026v0.208h0.032c0.461-0.669 0.911-1.317 1.749-1.317 0.083 0 0.176 0.011 0.271 0.031l-0.084 1.506c-0.156-0.052-0.313-0.073-0.48-0.073-0.556 0-0.995 0.451-1.403 0.859v3.433h-1.548v-4.345c0-0.229-0.074-0.491-0.347-0.491-0.074 0-0.148 0.017-0.216 0.05-0.017 0.01-0.04 8e-3 -0.056-6e-3 -0.014-0.012-0.02-0.029-0.018-0.048z"/><path d="m100.65 46.816c0.364 0.223 0.826 0.335 1.301 0.335 0.511 0 0.919-0.178 0.919-0.619 0-0.376-0.365-0.554-0.898-0.815-0.734-0.367-1.34-0.754-1.34-1.705 0-0.848 0.711-1.769 2.354-1.769 0.449 0 0.859 0.041 1.224 0.104l-0.177 1.067c-0.293-0.094-0.681-0.156-1.036-0.156-0.566 0-0.87 0.23-0.87 0.544 0 0.346 0.409 0.555 0.933 0.817 0.701 0.344 1.37 0.742 1.37 1.694 0 0.765-0.575 1.832-2.313 1.832-1.004 0-1.579-0.377-1.579-1.109 0-0.057 0-0.115 7e-3 -0.172 3e-3 -0.022 0.015-0.044 0.036-0.053 0.023-0.011 0.05-6e-3 0.069 5e-3z"/><path d="m130.4 46.816c0.364 0.223 0.827 0.335 1.301 0.335 0.512 0 0.92-0.178 0.92-0.619 0-0.376-0.367-0.554-0.899-0.815-0.734-0.367-1.34-0.754-1.34-1.705 0-0.848 0.711-1.769 2.355-1.769 0.448 0 0.857 0.041 1.222 0.104l-0.177 1.067c-0.293-0.094-0.68-0.156-1.036-0.156-0.565 0-0.87 0.23-0.87 0.544 0 0.346 0.41 0.555 0.934 0.817 0.7 0.344 1.37 0.742 1.37 1.694 0 0.765-0.575 1.832-2.313 1.832-1.005 0-1.579-0.377-1.579-1.109 0-0.057 0-0.115 7e-3 -0.172 2e-3 -0.022 0.015-0.044 0.036-0.053 0.023-0.011 0.051-6e-3 0.069 5e-3z"/><path d="m150.36 46.816c0.364 0.223 0.826 0.335 1.301 0.335 0.512 0 0.92-0.178 0.92-0.619 0-0.376-0.367-0.554-0.9-0.815-0.733-0.367-1.339-0.754-1.339-1.705 0-0.848 0.711-1.769 2.354-1.769 0.449 0 0.858 0.041 1.223 0.104l-0.177 1.067c-0.293-0.094-0.68-0.156-1.036-0.156-0.565 0-0.87 0.23-0.87 0.544 0 0.346 0.409 0.555 0.934 0.817 0.7 0.344 1.369 0.742 1.369 1.694 0 0.765-0.575 1.832-2.312 1.832-1.005 0-1.58-0.377-1.58-1.109 0-0.057 0-0.115 8e-3 -0.172 3e-3 -0.022 0.015-0.044 0.036-0.053 0.022-0.011 0.05-6e-3 0.069 5e-3z"/><path d="m120.27 41.5c-0.188 0-0.376 0.02-0.564 0.052v2.313c0.199 0.02 0.387 0.031 0.586 0.031 0.785 0 1.423-0.366 1.423-1.193 0-0.868-0.649-1.203-1.445-1.203zm4.128 5.629c0.021-8e-3 0.046-6e-3 0.063 0.011 0.012 0.011 0.017 0.029 0.015 0.05-0.051 0.615-0.601 0.87-1.191 0.87-1.517 0-2.366-1.568-2.91-3.264-0.219 0.021-0.46 0.021-0.669 0.021v3.161h-1.685v-7.346c0.817-0.043 1.622-0.075 2.438-0.075 1.35 0 2.962 0.336 2.983 2 0 0.973-0.723 1.674-1.55 1.988 0.545 1.015 1.539 2.627 2.272 2.627 0.084 0 0.159-0.017 0.234-0.043z"/><path d="m109.38 44.691c-0.23 0.241-0.345 0.545-0.345 0.88 0 0.868 0.816 1.59 1.726 1.59 0.304 0 0.617-0.073 0.869-0.23-0.785-0.702-1.569-1.434-2.25-2.24zm2.752-0.773c-0.027 9e-3 -0.046 0.012-0.06 4e-3 -0.015-8e-3 -0.022-0.022-0.025-0.038-0.013-0.055-0.019-0.118-0.019-0.177 0-0.47 0.407-0.753 0.837-0.753 0.89 0 1.433 0.806 1.433 1.695 0 0.754-0.313 1.455-0.795 2.009 0.513 0.44 1.047 0.89 1.57 1.32h-2.24c-0.094-0.074-0.418-0.335-0.512-0.409-0.607 0.356-1.33 0.587-2.073 0.587-1.287 0-2.595-0.838-2.595-2.23 0-0.879 0.45-1.548 1.215-1.947-0.315-0.408-0.566-0.941-0.566-1.412 0-1.434 1.339-2.082 2.574-2.082 0.481 0 0.963 0.041 1.445 0.104l-0.158 1.193c-0.334-0.105-0.69-0.157-1.036-0.157-0.638 0-1.161 0.335-1.161 1.015 0 0.879 1.863 2.512 2.794 3.328 0.157-0.282 0.241-0.586 0.241-0.962 0-0.587-0.283-1.121-0.711-1.121-0.049 0-0.108 0.014-0.158 0.033z"/><path d="m99.918 47.184c0.018-9e-3 0.047-0.015 0.066 0 0.014 0.01 0.025 0.03 0.021 0.06-0.06 0.452-0.433 0.816-1.052 0.816-0.723 0-1.119-0.47-1.119-1.244v-6.687h1.548v6.603c0 0.272 0.084 0.492 0.345 0.492 0.074 0 0.137-0.014 0.191-0.04z"/><path d="m36.224 23.815c0.206-0.064 0.467-0.089 0.683-0.05 1.155 0.197 1.582 2.132 1.482 4.881-0.114 3.163-1.355 8.327-3.647 8.352-0.175 1e-3 -0.392 0-0.557-0.059l-2.269-15.352h-4.211l1.67 10.059c-0.305 2.016-1.179 4.934-2.973 5.238-0.175 0.029-0.613 0.058-0.847 0.011l-2.261-15.308h-4.213l3.077 18.536c1.035 0.263 2.172 0.28 3.134 0.067 2.305-0.512 4.071-2.761 4.644-5.163l0.847 5.097c1.004 0.226 1.604 0.224 2.478 0.21 2.315-0.04 4.159-1.31 5.432-3.242 1.965-2.987 2.783-7.282 2.783-10.809 0-2.894-0.877-5.06-3.055-5.06-1.085 0-2.265 0.898-2.359 2.459-4e-3 0.055 8e-3 0.096 0.045 0.122 0.033 0.023 0.081 0.023 0.117 0.011zm-28.094 5.755c2.18-0.168 3.203-0.588 4.075-1.158 0.977-0.64 1.428-1.515 1.469-2.347 0.048-0.983-0.537-2.011-2.287-2.413-0.92-0.211-2.146-0.203-3.257-0.046zm1.745 8.383c1.449 0 2.218-0.282 2.885-0.665 1.197-0.688 1.881-2.106 1.741-3.582-0.137-1.438-1.101-2.363-2.489-2.761-1.017-0.289-2.431-0.286-3.882 0.099v6.744c0.48 0.108 1.187 0.165 1.745 0.165zm4.501-8.641c0.694 0.136 1.474 0.404 2.103 0.749 1.906 1.049 2.62 2.711 2.409 4.694-0.208 1.931-1.507 3.607-3.406 4.517-1.171 0.559-2.52 0.882-4.125 1.001-2.264 0.166-4.875 0.016-7.305-0.429v-18.006c1.97-0.323 4.185-0.603 6.135-0.601 2.114 2e-3 3.563 0.214 4.987 0.88 1.686 0.79 2.277 2.134 2.292 3.254 0.014 1.114-0.649 2.87-3.09 3.941z"/><path d="m50.499 14.824c0.547 6.656 0.782 11.76 0.782 16.06 0 4.299-0.248 9.403-0.782 16.06-0.011 0.132-0.121 0.233-0.254 0.233-0.132 0-0.242-0.101-0.254-0.233-0.548-6.667-0.783-11.772-0.783-16.06s0.235-9.392 0.783-16.06c0.012-0.132 0.122-0.234 0.254-0.234s0.243 0.102 0.254 0.234z"/><path d="m171.55 33.062c-0.051 0-0.1 4e-3 -0.144 0.012v0.612c0.051 3e-3 0.107 7e-3 0.158 7e-3 0.208 0 0.401-0.093 0.401-0.318 0-0.23-0.196-0.313-0.415-0.313zm0.061 0.813c-0.065 0.011-0.142 4e-3 -0.205 0v0.792h-0.289v-1.772c0.165-0.011 0.318-0.018 0.473-0.018 0.303 0 0.665 0.084 0.665 0.463 0 0.245-0.175 0.415-0.38 0.488 0.208 0.379 0.38 0.652 0.516 0.652 0.018 0 0.036 0 0.055-0.01l0.018 0.013v0.023c0 0.077-0.066 0.169-0.191 0.169-0.311 0-0.489-0.385-0.662-0.8zm0.073-1.261c-0.615 0-1.107 0.5-1.107 1.186 0 0.69 0.484 1.201 1.107 1.201 0.615 0 1.092-0.514 1.092-1.201 0-0.673-0.489-1.186-1.092-1.186zm0 2.562c-0.764 0-1.333-0.578-1.333-1.376 0-0.779 0.569-1.374 1.333-1.374 0.758 0 1.321 0.606 1.321 1.374 0 0.791-0.563 1.376-1.321 1.376z"/></g></svg>
