<?xml version="1.0" encoding="UTF-8"?> <svg xmlns="http://www.w3.org/2000/svg" viewBox="0 0 363.6 79"><switch><g><path fill="#0680C4" d="M70.8 74.2c-1.5-.1-3-.7-4.1-1.7l-4.1-4.2-.6-.6-27.6-27.9 3.7-3.8 37 37.4c-1.4.6-2.9.9-4.3.8m-13.9 0c-1.5-.1-3-.7-4.1-1.7l-4.1-4.2-.6-.6-20.7-20.8 3.4-3.4 29.9 30.1c-1.2.5-2.6.7-3.8.6m-14 0c-1.5-.1-3-.7-4.1-1.7l-4.1-4.2-.6-.6-13.6-13.8 3.4-3.4 22.9 23.1c-1.3.5-2.6.7-3.9.6M55.2 5.6c1.3-.6 2.8-.9 4.2-.8 1.5.1 3 .7 4.1 1.7l4.1 4.2.6.6 27.6 27.8-3.7 3.8L55.2 5.6zm18.2-.8c1.5.1 3 .7 4.1 1.7l4.1 4.2.6.6 20.6 20.8-3.4 3.4L69.6 5.4c1.2-.5 2.5-.7 3.8-.6m14 0c1.5.1 3 .7 4.1 1.7l4.1 4.2.6.6 13.7 13.8-3.4 3.4-23-23.1c1.2-.5 2.6-.7 3.9-.6m39.3 31.3L90.9 72.4c-.6.5-1.2.9-2 1.2-.9.3-1.9.5-2.9.5s-2-.2-2.9-.5c-.7-.3-1.4-.7-2-1.2l-39.6-40 1.6-1.6c.6-.5 2.6-2.5 4.8-2.5 1.1 0 2 .3 2.8.7l23.6 23.9.1-.1c1.5 1.6 3.8 3.1 7.3 3.1 3.3 0 7.1-2.4 8.6-4.2l26.1-26.1L95.1 3c-1.5-1.8-4-2.8-7.5-3-2.5-.1-5.7.3-7.9 1.7C78.2.7 76.2.1 73.6 0c-2.5-.1-5.7.3-7.9 1.7C64.2.7 62.2.1 59.6 0c-2.6-.1-6 .4-8.2 1.9C49.9.8 47.8.1 45.1 0h-2c-3.5.1-6 1.2-7.5 3L0 39.3l3.6 3.6L39.3 6.6c.6-.5 1.2-.9 2-1.2.9-.3 1.9-.5 2.9-.5s2 .2 2.9.5c.7.3 1.4.7 2 1.2l39.6 40-1.6 1.6c-.6.5-2.6 2.5-4.8 2.5-2.7.1-4.3-2-4.9-2.5l-20.7-21c-1.5-1.8-4-4.2-8.3-4.2-3.3 0-7.1 2.4-8.6 4.2L13.6 53.3 35.2 76c1.5 1.8 4 2.8 7.5 3 2.5.1 5.7-.3 7.9-1.7 1.5 1 3.5 1.6 6.1 1.7 2.5.1 5.7-.3 7.9-1.7 1.5 1 3.5 1.6 6.1 1.7 2.6.1 6-.4 8.2-1.9 1.5 1.1 3.6 1.8 6.3 1.9h2c3.5-.1 6-1.2 7.5-3l35.7-36.3-3.7-3.6z"></path><path d="M150.4 33.6c0 1.4-.9 1.9-2 1.9H145.1l-.1-.1V26s0-.2.1-.2H148.5c.7 0 1.4.6 1.4 1.2v.8c0 .4-.6 1.4-1.4 1.4h-1.4c-.2 0-.4.2-.4.4v1.6c0 .2.2.4.4.4h1.6c1.5.1 1.9.9 1.9 1.3v.7zm.5-3.4c-.2 0-.3-.1-.3-.2s.1-.2.2-.2h.4c1.4-.2 2.4-1.3 2.4-2.7v-1c0-1.5-1.2-2.7-2.7-2.7h-11c-.1 0-.1.1-.1.1v1.7s0 .1.1.2h.2c.5.1 1.3.5 1.3.8v8.6c0 .4-.7.7-1.3.8 0 0-.1 0-.2.1s0 .2 0 .2v1.7c0 .1.1.1.1.1h11c1.9 0 3.3-1.9 3.3-3.4v-1.4c-.1-1.5-1-2.7-3.4-2.7M347.1 33.6c0 1.4-.9 1.9-2 1.9H341.8l-.1-.1V26s0-.2.1-.2H345.2c.7 0 1.4.6 1.4 1.2v.8c0 .4-.6 1.4-1.4 1.4h-1.4c-.2 0-.4.2-.4.4v1.6c0 .2.2.4.4.4h1.6c1.5.1 1.9.9 1.9 1.3v.7zm.5-3.4c-.2 0-.3-.1-.3-.2s.1-.2.2-.2h.4c1.4-.2 2.4-1.3 2.4-2.7v-1c0-1.5-1.2-2.7-2.7-2.7h-11c-.1 0-.1.1-.1.1v1.7s0 .1.1.2h.2c.5.1 1.3.5 1.3.8v8.6c0 .4-.7.7-1.3.8 0 0-.1 0-.2.1s0 .2 0 .2v1.7c0 .1.1.1.1.1h11c1.9 0 3.3-1.9 3.3-3.4v-1.4c-.1-1.5-1-2.7-3.4-2.7M183.6 23.4h-4.4c-.4 0-.4 0-.4.4v1c0 .2.4.1.4.1s.2 0 .4.2l.1.2s0 .3-.2.6c-.2.4-1.1 1.9-1.5 2.5 0 .2-.3.3-.5.3s-.3-.2-.4-.3l-1.7-2.4s-.3-.5 0-1c.1-.2.4-.2.5-.2.2 0 .3 0 .3-.4v-.9c0-.1-.1-.3-.3-.3h-5.6c-.2 0-.4 0-.4.3v1.1c0 .4-.1.5.2.5.5 0 1 .5 1 .5l3.9 5.6V35c0 .2-.4.3-.8.4l-.4.1c-.1 0-.1 0-.1.1v1.9c0 .1.1.1.1.1h6.1c.1 0 .1 0 .1-.1v-1.9c0-.1-.1-.1-.1-.1h-.2c-.5-.1-1.1-.4-1.1-.6v-3.3l3.2-5s.6-.8.7-1c.2-.2.4-.3.6-.4l.5-.1c.4 0 .4-.1.4-.4v-1.1c0-.2-.1-.2-.4-.2M320.5 35.5v-3c0-.2-.2-.4-.4-.4H319c-.2 0-.4.2-.4.4v.6c0 .3-.1.5-.2.8-.3.6-1 1.1-1.3 1.2-.7.3-1.7.2-1.7.2h-1.5c-.2-.1-.3-.2-.3-.4v-8.6c0-.3.8-.7 1.4-.8 0 0 .1 0 .1-.1v-1.8c0-.1-.1-.1-.1-.1h-5.9c-.1 0-.1.1-.1.1v1.8c0 .1.1.1.1.1.6.1 1.4.4 1.4.8v8.6c0 .3-.8.7-1.4.8 0 0-.1 0-.1.1v1.8c0 .1.1.1.1.1H320.2c.2 0 .4-.2.4-.4v-1.6c-.1-.1-.1-.2-.1-.2M275.3 35.5v-3c0-.2-.2-.4-.4-.4h-1.1c-.2 0-.4.2-.4.4v.6c0 .3-.1.5-.2.8-.3.6-1 1.1-1.3 1.2-.7.3-1.7.2-1.7.2h-1.5c-.2-.1-.3-.2-.3-.4v-8.6c0-.3.8-.7 1.4-.8 0 0 .1 0 .1-.1v-1.8c0-.1-.1-.1-.1-.1h-5.9c-.1 0-.1.1-.1.1v1.8c0 .1.1.1.1.1.6.1 1.4.4 1.4.8v8.6c0 .3-.8.7-1.4.8 0 0-.1 0-.1.1v1.8c0 .1.1.1.1.1H275c.2 0 .4-.2.4-.4v-1.6c-.1-.1-.1-.2-.1-.2M327.8 35.4c-.4 0-1.2 0-1.5-.1-.4-.1-.9-.3-1.2-.7-.2-.4-.1-1.5-.1-1.9v-6.4c0-.3.8-.7 1.4-.8 0 0 .1 0 .1-.1v-1.8c0-.1-.1-.1-.1-.1h-6.5c-.1 0-.1.1-.1.1v1.8c0 .1.1.1.1.1.6.1 1.4.4 1.4.8V33.7s0 1.8.3 2.3c.8 1.3 2 2 5.7 2h.7c3.7 0 5.1-.7 5.9-2 .3-.5.3-2.3.3-2.3V26.3c0-.3.8-.7 1.4-.8 0 0 .1 0 .1-.1v-1.8c0-.1-.1-.1-.1-.1h-6.5c-.1 0-.1.1-.1.1v1.8c0 .1.1.1.1.1.6.1 1.4.4 1.4.8v6.4c0 .4.1 1.6-.1 1.9-.3.4-.8.7-1.2.7-.2.1-1.1.1-1.4.1M307.9 33.7c0-.2-.2-.4-.4-.4h-1.1c-.2 0-.4.2-.4.4v.2c0 .6-.8 1.4-1.2 1.5-.7.3-1 .3-2 .3s-1.3 0-2-.3c-.4-.2-1.2-1-1.5-1.7-.2-.5-.4-1.2-.4-3.3s.1-3.1.4-3.5c.5-.7 1.2-1.5 3-1.5s2.4.6 2.7 1.1c0 0 .5.4.5.9v.2c0 .2.2.4.4.4h1.1c.2 0 .4-.2.4-.4v-3.4s.1-.2-.2-.5c0 0-1.7-.5-4.4-.5-2.3 0-4.2.5-5.2 1.1-1 .6-2.8 2.4-2.8 6s.8 5 1.8 5.9c.8.8 2 1.5 4.4 1.8.1.1.7.1 1.2.1h.5c.5 0 .9 0 1.3-.1 2.9-.1 3.6-.4 3.6-.4.2 0 .4-.2.4-.4l-.1-3.5zM238.7 33.7v-3.5c0-.2-.2-.4-.4-.4h-5.2c-.2 0-.4.2-.4.4V31.8c0 .2.2.4.4.4h2v3.1c-.1.1-.2.1-.3.2-.7.3-1 .3-2 .3s-1.3 0-2-.3c-.4-.2-1.2-1-1.5-1.7-.2-.5-.4-1.2-.4-3.3 0-2.1.1-3.1.4-3.5.5-.7 1.2-1.5 3-1.5 1.7 0 2.4.6 2.7 1.1 0 0 .5.4.5.9v.2c0 .2.2.4.4.4h1.1c.2 0 .4-.2.4-.4v-3.4s.1-.2-.2-.5c0 0-1.7-.5-4.4-.5-2.3 0-4.2.5-5.1 1.1-1 .6-2.8 2.4-2.8 6s.8 5 1.8 5.9c.8.8 2 1.5 4.4 1.8.1.1.7.1 1.2.1h.5c.5 0 .9 0 1.3-.1 2.9-.1 4.2-.4 4.2-.4.2 0 .4-.2.4-.4v-3.6M165.9 33.7c-.2.7-1.1 1.5-1.5 1.7-.7.3-1 .3-2 .3s-1.3 0-2-.3c-.4-.2-1.2-1-1.5-1.7-.2-.5-.4-1.2-.4-3.3 0-2.1.1-3.1.4-3.5.5-.7 1.2-1.5 3-1.5h1c2 0 2.5.8 3 1.5.3.4.4 1.4.4 3.5 0 2.2-.2 2.8-.4 3.3m1.6-9.5c-.9-.6-2.7-1-4.9-1.1h-.4c-2.2.1-3.9.5-4.9 1.1-1 .6-2.8 2.4-2.8 6s.8 5 1.8 5.9c.8.8 2 1.5 4.4 1.8.1.1.7.1 1.2.1h.6c.1 0 1.4-.1 1.5-.1 2.4-.3 3.6-1.1 4.4-1.8 1-.9 1.8-2.2 1.8-5.9.1-3.6-1.7-5.4-2.7-6M148.2 54.2c-.2.5-.8 1.2-1.1 1.3-.6.2-.8.2-1.5.3-.8 0-1 0-1.5-.3-.3-.1-.9-.8-1.1-1.3-.1-.4-.3-.9-.3-2.5s.1-2.4.3-2.7c.4-.6.9-1.2 2.3-1.2H145.9c1.3 0 1.9.6 2.3 1.2.2.3.3 1.1.3 2.7s-.2 2.1-.3 2.5m1.2-7.4c-.7-.4-2.1-.8-3.8-.8h-.1-.1-.2c-1.7 0-3 .4-3.8.8-.7.5-2.2 1.8-2.2 4.6s.6 3.8 1.4 4.5c.6.6 1.5 1.2 3.4 1.4.1 0 .6.1 1 .1H145.6c.4 0 .9 0 1-.1 1.9-.2 2.8-.8 3.4-1.4.7-.7 1.4-1.7 1.4-4.5s-1.2-4.1-2-4.6M246.4 35.7c0-.1-.1-.1-.1-.1-.6-.1-1.4-.4-1.4-.8V26.2c0-.3.8-.7 1.4-.8 0 0 .1 0 .1-.1v-1.8c0-.1-.1-.1-.1-.1h-5.9c-.1 0-.1.1-.1.1v1.8c0 .1.1.1.1.1.6.1 1.4.4 1.4.8v8.6c0 .3-.8.7-1.4.8 0 0-.1 0-.1.1v1.8c0 .1.1.1.1.1h5.9c.1 0 .1-.1.1-.1v-1.7c.1 0 .1-.1 0-.1M219.2 55.5h-.1c-.5-.1-1.1-.3-1.1-.6v-6.6c0-.3.6-.5 1.1-.6h.1V46.3c0-.1 0-.1-.1-.1h-4.6c-.1 0-.1 0-.1.1V47.7h.1c.5.1 1.1.3 1.1.6v6.6c0 .3-.6.5-1.1.6h-.1V56.9c0 .1 0 .1.1.1h4.6c.1 0 .1 0 .1-.1v-1.3-.1M262.9 35.7c0-.1-.1-.1-.1-.1-.6-.1-1.4-.4-1.4-.8v-1.9c0-1.5-.4-2.7-2.9-2.7h-.1c-.1 0-.2-.1-.2-.2s.1-.2.2-.2h.4c1.4-.2 2.4-1.4 2.4-2.8v-.8c0-1.5-1.2-2.7-2.7-2.7h-10.9c-.1 0-.1.1-.1.1v1.8c0 .1.1.1.1.1.6.1 1.4.4 1.4.8v8.6c0 .3-.8.7-1.4.8 0 0-.1 0-.1.1v1.8c0 .1.1.1.1.1h5.9c.1 0 .1-.1.1-.1v-1.7-.1c0-.1-.1-.1-.1-.1-.6-.1-1.4-.4-1.4-.8V26.3c0-.2.2-.4.5-.5h3.4c.7 0 1.4.6 1.4 1.2v.6c0 .4-.6 1.5-1.4 1.5h-2.2c-.2 0-.4.2-.4.4v1.6c0 .2.2.4.4.4h2.3c1.5.1 1.4.9 1.5 1.3v4s0 .3.1.5c.1.3.6.3.6.3h4.5c.1 0 .1-.1.1-.1v-1.7c.1 0 .1-.1 0-.1M213.8 55.5h-.1c-.5-.1-1.1-.3-1.1-.6v-1.5c0-1.2-.3-2.1-2.2-2.1h-.1c-.1 0-.1-.1-.1-.1 0-.1.1-.1.1-.1h.3c1.1-.1 1.9-1.1 1.9-2.2v-.6c0-1.2-.9-2.1-2.1-2.1H202c-.1 0-.1 0-.1.1V47.7h.1c.5.1 1.1.3 1.1.6v6.6c0 .3-.6.5-1.1.6h-.1V56.9c0 .1 0 .1.1.1h4.6c.1 0 .1 0 .1-.1v-1.3-.1h-.1c-.5-.1-1.1-.3-1.1-.6v-6.6c0-.1.2-.3.4-.4h2.6c.5 0 1.1.4 1.1.9v.5c0 .3-.5 1.2-1.1 1.1h-1.6c-.2 0-.3.2-.3.3V52c0 .2.2.3.3.3h1.8c1.2.1 1.1.7 1.1 1v3.5c.1.2.5.3.5.3h3.5c.1 0 .1 0 .1-.1v-1.3c-.1-.1-.1-.1-.1-.2M186.6 30.8c1.2.4 3.2.9 4.5 1.2 1.4.2 2 .9 1.8 2.1-.2 1.2-1.6 1.4-2.3 1.5 0 0-1.8.1-2.5-.2-.3-.1-1.1-1.1-1.3-1.3l-.3-.7c0-.1-.2-.2-.4-.2h-1.3c-.2 0-.3 0-.3.2v4c0 .4.6.5 2.2.5h4.2s1.8.1 3.1-.7c1.1-.6 2-2.4 2-3.7-.1-2.1-.2-3.2-1.4-3.9-1-.6-3.2-.9-4.5-1.2-1.4-.2-2.5-.4-2.5-1.7 0-1.2 1.6-1.4 2.3-1.5 0 0 .9-.1 1.7.2.3.1.6.2 1 .7.2.2.5 1.1.5 1.1 0 .2.2.4.4.4h1.1c.4 0 .4 0 .4-.4v-3.7c0-.3-1.4-.2-2.2-.2h-4.7s-1.6 0-2.6.9c-.7.7-1.4 2-1.4 3.3.3 1.3.5 2.7 2.5 3.3M278.2 30.8c1.2.4 3.2.9 4.5 1.2 1.4.2 2 .9 1.8 2.1-.2 1.2-1.6 1.4-2.3 1.5 0 0-1.8.1-2.5-.2-.3-.1-1.1-1.1-1.3-1.3l-.3-.7c0-.1-.2-.2-.4-.2h-1.3c-.2 0-.3 0-.3.2v4c0 .4.6.5 2.2.5h4.2s1.8.1 3.1-.7c1.1-.6 2-2.4 2-3.7-.1-2.1-.2-3.2-1.4-3.9-1-.6-3.2-.9-4.5-1.2-1.4-.2-2.5-.4-2.5-1.7 0-1.2 1.6-1.4 2.3-1.5 0 0 .9-.1 1.7.2.3.1.6.2 1 .7.2.2.5 1.1.5 1.1 0 .2.2.4.4.4h1.1c.4 0 .4 0 .4-.4v-3.7c0-.3-1.4-.2-2.2-.2h-4.7s-1.6 0-2.6.9c-.7.7-1.4 2-1.4 3.3.3 1.3.5 2.7 2.5 3.3M354.1 30.8c1.2.4 3.2.9 4.5 1.2 1.4.2 2 .9 1.8 2.1-.2 1.2-1.6 1.4-2.3 1.5 0 0-1.8.1-2.5-.2-.3-.1-1.1-1.1-1.3-1.3l-.3-.7c0-.1-.2-.2-.4-.2h-1.3c-.2 0-.3 0-.3.2v4c0 .4.6.5 2.2.5h4.2s1.8.1 3.1-.7c1.1-.6 2-2.4 2-3.7-.1-2.1-.2-3.2-1.4-3.9-1-.6-3.2-.9-4.5-1.2-1.4-.2-2.5-.4-2.5-1.7 0-1.2 1.6-1.4 2.3-1.5 0 0 .9-.1 1.7.2.3.1.6.2 1 .7.2.2.5 1.1.5 1.1 0 .2.2.4.4.4h1.1c.4 0 .4 0 .4-.4v-3.7c0-.3-1.4-.2-2.2-.2h-4.7s-1.6 0-2.6.9c-.7.7-1.4 2-1.4 3.3.3 1.3.5 2.7 2.5 3.3M209.5 35.9c-3.2-.1-3.6-1.2-3.6-2.9 0-.8.4-1.5 1-2.1l5.6 4.5c-.6.3-1.8.5-3 .5m-.7-10.8c1.3.1 2 .7 2 1.3 0 .8-1.8 1.5-2.2 1.5-.1 0-.2 0-.3-.1-.2-.1-.4-.2-.6-.2-.6-.3-1.1-.7-1.1-1.2 0-.6.9-1.3 2.2-1.3m10.9 11.5c-.1-.2-.3-.1-.6-.2l-.6-.2-1.7-1.2c.2-.4.4-.9.6-1.2.2-.5.3-2.1.3-2.7s.1-1.5-.1-1.7c-.1 0-.3-.1-.3-.1H215s-.1 0-.2.1-.1.4-.1.4V31c.1.7-.1 1.4-.4 1.9l-3.5-2.9c1.9-.7 3.2-2.4 3.2-3.6-.1-2.4-2.2-3.3-5.2-3.4-3.4-.1-5.6 1.3-5.6 3.4 0 .6.2 1.2.5 1.6v.1l.1.1c.2.3.5.6.8.9-1.5 1-2.4 2.5-2.4 4.1 0 2.9 1.4 5 7.1 5.2 2.1.1 4-.4 5.5-1.3l.6.3c.2.2.4.4.9.4h3.3c.2 0 .4-.1.4-.3v-.2c-.2-.1-.2-.6-.3-.7M201.4 54c0-.2-.2-.3-.3-.3h-.9c-.2 0-.3.2-.3.3l-.2.5c0 .2-.2.3-.3.5-.2.5-4.3.2-4.3.2-.1-.1-.2-.2-.2-.3V52h3.4c.2 0 .4.3.5.6v.1H200s.1 0 .1-.1v-3.2s0-.1-.1-.1h-1.1-.1v.1c-.1.4-.3.6-.5.6h-3.4v-2.1c.1-.1.3-.1.3-.1h3.1c.3 0 .9 0 1 .2.1.2.1.4.1.4 0 .2.2.3.3.3h.9c.2 0 .3-.2.3-.3v-2c0-.2-.2-.3-.3-.3H191.2c-.1 0-.1 0-.1.1V47.6h.1c.5.1 1.1.3 1.1.6v6.6c0 .3-.6.5-1.1.6h-.1V56.8c0 .1 0 .1.1.1h9.9c.2 0 .3-.2.3-.3V54zM161.3 46.1h-9c-.1 0-.1 0-.1.1V47.6h.1c.5.1 1.1.3 1.1.6v6.6c0 .3-.6.5-1.1.6h-.1V56.8c0 .1 0 .1.1.1H156.9c.1 0 .1 0 .1-.1v-1.3-.1h-.1c-.3 0-.6-.2-.9-.3h-.1l-.1-.1v-.1V52h3c.2 0 .4.3.5.6v.1H160.5s.1 0 .1-.1v-3s0-.1-.1-.1h-1.1-.1v.1c-.1.4-.3.6-.5.6h-3v-2.3c.1-.1.3-.1.3-.1h2.7c.3 0 .9 0 1 .2.1.2.1.3.1.3 0 .2.2.3.3.3h.9c.2 0 .3-.2.3-.3v-2c.3 0 .1-.2-.1-.2M169.7 46.1s-.1 0-.2.1-.1.2-.1.2"></path><path d="M171.9 51.3c0 .1-.2 0-.2 0h-1.6-.2v-.2l.9-2.5.9 2.4c.1 0 .2.2.2.3m18.6 4.3v-.1h-.1c-.5-.1-1.1-.3-1.1-.6l-1.4-6.6c0-.3.3-.5.7-.6h.1V46.3c0-.1 0-.1-.1-.1h-3.4-.5c-.1.1-.2.4-.2.4l-.7 2.3s-.4 1.5-.6 1.5c-.1 0-.5-1.4-.5-1.4l-.7-2.2s-.1-.4-.3-.5c-.1-.1-.6-.1-.6-.1h-3.4c-.1 0-.1 0-.1.1V47.7h.1c.5.1.7.3.7.6l-1.4 6.6c-.1.3-.2.4-.4.4s-.3-.1-.4-.4l-3.4-8.5-.1-.2c-.1-.1-.2-.1-.2-.1h-3s-.1 0-.2.1-.1.2-.1.2l-3.4 8.5c0 .3-.6.5-1.1.6h-.1V56.9c0 .1 0 .1.1.1h4.3c.1 0 .1 0 .1-.1v-1.3-.1h-.1c-.5-.1-.9-.2-.8-.6l.7-1.7h3.5l.7 1.7c.2.3-.2.5-.6.6h-.1V56.9c0 .1 0 .1.1.1h7.5c.1 0 .1 0 .1-.1v-1.3-.1h-.1c-.5-.1-.6-.3-.6-.6l.6-4.6s0-.4.1-.4.3.7.3.7l.9 3.3s.1.3.3.4c.1.1.5.3.5.3h1.4s.1 0 .3-.1c.2-.1.4-.7.4-.7l1-3.6s.1-.3.2-.3.2.5.2.5l.6 4.6c0 .3-.1.5-.6.6h-.1V57c0 .1 0 .1.1.1h4.6c.1 0 .1 0 .1-.1l.2-1.4zM234 51.3c0 .1-.2 0-.2 0h-1.6-.2v-.2l.9-2.5.9 2.4c.1 0 .2.2.2.3m5.7 4.2h-.1c-.5-.1-1.1-.3-1.1-.6l-3.4-8.5-.1-.2c-.1-.1-.2-.1-.2-.1h-3s-.1 0-.2.1-.1.2-.1.2l-2.9 7.3s-.6 1.4-1.4 1.6c-.7.2-1.1.2-1.9.3-.8 0-1 0-1.6-.3-.3-.1-.9-.8-1.1-1.3-.1-.4-.3-.9-.3-2.5s.1-2.4.3-2.7c.4-.6.9-1.2 2.3-1.2 1.3 0 1.8.5 2.1.8 0 0 .4.3.4.7v.1c0 .2.2.3.3.3h.9c.2 0 .3-.2.3-.3v-2.6s0-.2-.2-.4c0 0-1.3-.4-3.4-.4-1.8 0-3.2.4-4 .9-.7.5-2.2 1.8-2.2 4.6s.6 3.8 1.4 4.5c.6.6 1.3 1 2.9 1.2.1 0 1 .1 1.4.1h1.4c1.3-.1 2 .1 2.4 0h2.7c.1 0 .1 0 .1-.1v-1.3-.1h-.1c-.5-.1-.9-.2-.8-.6l.7-1.7h3.5l.7 1.7c.2.3-.2.5-.6.6h-.1V57c0 .1 0 .1.1.1h4.8c.1 0 .1 0 .1-.1v-1.3-.2"></path></g></switch></svg> 